<svg xmlns="http://www.w3.org/2000/svg" viewBox="0 0 316.07 354.43"><defs><style>.cls-1,.cls-2{stroke:#000;stroke-miterlimit:10;stroke-width:0.83px;}.cls-2{fill:#fff;}.cls-3{fill:#ff4a4f;}.cls-4{fill:#0094dc;}.cls-5{fill:#00e953;}</style></defs><title>123</title><g id="Слой_2" data-name="Слой 2"><path class="cls-1" d="M447.68,665.72s-34.1-54.88-15.8-118.07l-16.63,28.27s-12.47-52.39,41.57-83.15c0,0-44.07-61.53,16.63-127.22s147.24-51.72,159.64-49.88,103.94,15,95.62,106.42c0,0-9.14,48.23-47.39,72.34,0,0,.83,6.65,10,5.82S677.16,511.89,663,511.89c0,0-44.07,34.09-29.11,136.36,0,0,8.32,17.47-6.65,18.3s-51.55-.83-51.55-.83-10.81-46.57-42.4-45.74-41.58,45.74-41.58,45.74Z" transform="translate(-413.59 -312.77)"/></g><g id="Слой_3" data-name="Слой 3"><path class="cls-2" d="M506.71,505.24s-64-23.28-42.41-93.95,128.19-73.56,137.2-73.17,89,3.32,87.3,64c0,0,5,27.44-59.86,27.44s-65.59,37.22-69,41.57-4.42,8.35-21.61,7.48H497.56S496.73,498.59,506.71,505.24Z" transform="translate(-413.59 -312.77)"/></g><g id="Слой_4" data-name="Слой 4"><circle class="cls-3" cx="216.18" cy="75.23" r="10.81"/><circle class="cls-4" cx="153.82" cy="79.39" r="10.81"/><circle class="cls-5" cx="102.27" cy="106.83" r="10.81"/></g></svg>