<?xml version="1.0" standalone="no"?>
<!DOCTYPE svg PUBLIC "-//W3C//DTD SVG 20010904//EN"
 "http://www.w3.org/TR/2001/REC-SVG-20010904/DTD/svg10.dtd">
<svg version="1.0" xmlns="http://www.w3.org/2000/svg"
 width="512.000000pt" height="512.000000pt" viewBox="0 0 512.000000 512.000000"
 preserveAspectRatio="xMidYMid meet">

<g transform="translate(0.000000,512.000000) scale(0.100000,-0.100000)"
fill="#000000" stroke="none">
<path d="M2455 3874 c-94 -11 -216 -35 -290 -60 -466 -152 -814 -548 -902
-1029 -24 -132 -22 -351 6 -482 111 -528 524 -934 1059 -1040 128 -25 356 -22
489 6 122 25 219 59 326 112 l78 39 212 -35 c238 -39 265 -41 273 -20 3 7 -6
116 -20 240 l-26 225 38 68 c224 396 238 852 37 1252 -62 124 -154 246 -263
352 -189 183 -403 297 -650 347 -97 20 -291 33 -367 25z m325 -90 c448 -78
827 -409 963 -840 42 -132 57 -235 57 -384 0 -249 -55 -443 -192 -673 l-22
-37 23 -206 c13 -113 20 -208 18 -211 -3 -3 -98 10 -211 28 l-205 33 -108 -51
c-193 -91 -333 -123 -543 -123 -217 0 -381 39 -570 136 -346 177 -583 498
-655 884 -20 110 -20 327 0 444 96 551 569 979 1120 1014 135 9 215 5 325 -14z"/>
<path d="M2393 3539 c-133 -15 -300 -84 -420 -172 -175 -130 -288 -297 -329
-487 -24 -112 -14 -157 33 -148 14 3 20 20 30 85 14 98 26 138 66 218 77 154
221 288 393 366 79 36 212 69 280 69 52 0 74 12 74 42 0 16 -29 40 -47 37 -4
-1 -41 -5 -80 -10z"/>
<path d="M1646 2567 c-17 -12 -18 -22 -12 -73 11 -93 24 -132 47 -139 13 -4
27 -2 35 6 11 12 11 28 -2 99 -22 118 -32 134 -68 107z"/>
</g>
</svg>
