<?xml version="1.0" standalone="no"?>
<!DOCTYPE svg PUBLIC "-//W3C//DTD SVG 20010904//EN"
 "http://www.w3.org/TR/2001/REC-SVG-20010904/DTD/svg10.dtd">
<svg version="1.0" xmlns="http://www.w3.org/2000/svg"
 width="880.000000pt" height="738.000000pt" viewBox="0 0 880.000000 738.000000"
 preserveAspectRatio="xMidYMid meet">
<metadata>
Created by potrace 1.16, written by Peter Selinger 2001-2019
</metadata>
<g transform="translate(0.000000,738.000000) scale(0.100000,-0.100000)"
fill="#000000" stroke="none">
<path d="M4305 6967 c-104 -28 -9 48 -1405 -1107 -737 -610 -1122 -927 -1760
-1454 -604 -499 -648 -537 -685 -599 -118 -203 -32 -474 185 -576 l55 -26 440
-5 440 -5 5 -1130 5 -1130 32 -66 c59 -120 169 -204 298 -228 81 -15 1389 -15
1470 0 129 24 239 109 298 229 l32 65 5 685 c6 681 6 685 29 755 38 116 86
192 180 285 94 93 180 144 301 177 87 23 252 23 340 -1 231 -63 422 -254 480
-482 19 -73 20 -112 20 -688 0 -353 5 -641 10 -681 18 -125 87 -229 192 -293
101 -60 120 -62 874 -62 417 0 702 4 734 10 149 28 258 121 317 270 17 42 18
121 23 1165 l5 1120 440 5 440 5 57 28 c156 76 250 238 235 402 -8 85 -40 164
-88 219 -23 25 -179 160 -347 299 -1199 990 -1426 1177 -1497 1237 -371 310
-1819 1503 -1850 1523 -85 56 -215 78 -310 54z"/>
</g>
</svg>
